<svg xmlns="http://www.w3.org/2000/svg" style="display:none">
<symbol id="icon-arrow-narrow-right" viewBox="0 0 24 24" fill="none" stroke="currentColor" stroke-width="2" stroke-linecap="round" stroke-linejoin="round">
  <path stroke="none" d="M0 0h24v24H0z" fill="none" />
  <path d="M5 12l14 0" />
  <path d="M15 16l4 -4" />
  <path d="M15 8l4 4" />
</symbol>
<symbol id="icon-arrow-right" viewBox="0 0 24 24" fill="none" stroke="currentColor" stroke-width="2" stroke-linecap="round" stroke-linejoin="round">
  <path stroke="none" d="M0 0h24v24H0z" fill="none" />
  <path d="M5 12l14 0" />
  <path d="M13 18l6 -6" />
  <path d="M13 6l6 6" />
</symbol>
<symbol id="icon-arrow-up" viewBox="0 0 24 24" fill="none" stroke="currentColor" stroke-width="2" stroke-linecap="round" stroke-linejoin="round">
  <path stroke="none" d="M0 0h24v24H0z" fill="none" />
  <path d="M12 5l0 14" />
  <path d="M18 11l-6 -6" />
  <path d="M6 11l6 -6" />
</symbol>
<symbol id="icon-award" viewBox="0 0 24 24" fill="none" stroke="currentColor" stroke-width="2" stroke-linecap="round" stroke-linejoin="round">
  <path stroke="none" d="M0 0h24v24H0z" fill="none" />
  <path d="M6 9a6 6 0 1 0 12 0a6 6 0 1 0 -12 0" />
  <path d="M12 15l3.4 5.89l1.598 -3.233l3.598 .232l-3.4 -5.889" />
  <path d="M6.802 12l-3.4 5.89l3.598 -.233l1.598 3.232l3.4 -5.889" />
</symbol>
<symbol id="icon-brand-facebook" viewBox="0 0 24 24" fill="none" stroke="currentColor" stroke-width="2" stroke-linecap="round" stroke-linejoin="round">
  <path stroke="none" d="M0 0h24v24H0z" fill="none" />
  <path d="M7 10v4h3v7h4v-7h3l1 -4h-4v-2a1 1 0 0 1 1 -1h3v-4h-3a5 5 0 0 0 -5 5v2h-3" />
</symbol>
<symbol id="icon-brand-instagram" viewBox="0 0 24 24" fill="none" stroke="currentColor" stroke-width="2" stroke-linecap="round" stroke-linejoin="round">
  <path stroke="none" d="M0 0h24v24H0z" fill="none" />
  <path d="M4 8a4 4 0 0 1 4 -4h8a4 4 0 0 1 4 4v8a4 4 0 0 1 -4 4h-8a4 4 0 0 1 -4 -4l0 -8" />
  <path d="M9 12a3 3 0 1 0 6 0a3 3 0 0 0 -6 0" />
  <path d="M16.5 7.5v.01" />
</symbol>
<symbol id="icon-brand-linkedin" viewBox="0 0 24 24" fill="none" stroke="currentColor" stroke-width="2" stroke-linecap="round" stroke-linejoin="round">
  <path stroke="none" d="M0 0h24v24H0z" fill="none" />
  <path d="M8 11v5" />
  <path d="M8 8v.01" />
  <path d="M12 16v-5" />
  <path d="M16 16v-3a2 2 0 1 0 -4 0" />
  <path d="M3 7a4 4 0 0 1 4 -4h10a4 4 0 0 1 4 4v10a4 4 0 0 1 -4 4h-10a4 4 0 0 1 -4 -4l0 -10" />
</symbol>
<symbol id="icon-brand-twitter" viewBox="0 0 24 24" fill="none" stroke="currentColor" stroke-width="2" stroke-linecap="round" stroke-linejoin="round">
  <path stroke="none" d="M0 0h24v24H0z" fill="none" />
  <path d="M22 4.01c-1 .49 -1.98 .689 -3 .99c-1.121 -1.265 -2.783 -1.335 -4.38 -.737s-2.643 2.06 -2.62 3.737v1c-3.245 .083 -6.135 -1.395 -8 -4c0 0 -4.182 7.433 4 11c-1.872 1.247 -3.739 2.088 -6 2c3.308 1.803 6.913 2.423 10.034 1.517c3.58 -1.04 6.522 -3.723 7.651 -7.742a13.84 13.84 0 0 0 .497 -3.753c0 -.249 1.51 -2.772 1.818 -4.013l0 .001" />
</symbol>
<symbol id="icon-brand-x" viewBox="0 0 24 24" fill="none" stroke="currentColor" stroke-width="2" stroke-linecap="round" stroke-linejoin="round">
  <path stroke="none" d="M0 0h24v24H0z" fill="none" />
  <path d="M4 4l11.733 16h4.267l-11.733 -16l-4.267 0" />
  <path d="M4 20l6.768 -6.768m2.46 -2.46l6.772 -6.772" />
</symbol>
<symbol id="icon-briefcase" viewBox="0 0 24 24" fill="none" stroke="currentColor" stroke-width="2" stroke-linecap="round" stroke-linejoin="round">
  <path stroke="none" d="M0 0h24v24H0z" fill="none" />
  <path d="M3 9a2 2 0 0 1 2 -2h14a2 2 0 0 1 2 2v9a2 2 0 0 1 -2 2h-14a2 2 0 0 1 -2 -2l0 -9" />
  <path d="M8 7v-2a2 2 0 0 1 2 -2h4a2 2 0 0 1 2 2v2" />
  <path d="M12 12l0 .01" />
  <path d="M3 13a20 20 0 0 0 18 0" />
</symbol>
<symbol id="icon-building-skyscraper" viewBox="0 0 24 24" fill="none" stroke="currentColor" stroke-width="2" stroke-linecap="round" stroke-linejoin="round">
  <path stroke="none" d="M0 0h24v24H0z" fill="none" />
  <path d="M3 21l18 0" />
  <path d="M5 21v-14l8 -4v18" />
  <path d="M19 21v-10l-6 -4" />
  <path d="M9 9l0 .01" />
  <path d="M9 12l0 .01" />
  <path d="M9 15l0 .01" />
  <path d="M9 18l0 .01" />
</symbol>
<symbol id="icon-bulb" viewBox="0 0 24 24" fill="none" stroke="currentColor" stroke-width="2" stroke-linecap="round" stroke-linejoin="round">
  <path stroke="none" d="M0 0h24v24H0z" fill="none" />
  <path d="M3 12h1m8 -9v1m8 8h1m-15.4 -6.4l.7 .7m12.1 -.7l-.7 .7" />
  <path d="M9 16a5 5 0 1 1 6 0a3.5 3.5 0 0 0 -1 3a2 2 0 0 1 -4 0a3.5 3.5 0 0 0 -1 -3" />
  <path d="M9.7 17l4.6 0" />
</symbol>
<symbol id="icon-chart-bar" viewBox="0 0 24 24" fill="none" stroke="currentColor" stroke-width="2" stroke-linecap="round" stroke-linejoin="round">
  <path stroke="none" d="M0 0h24v24H0z" fill="none" />
  <path d="M3 13a1 1 0 0 1 1 -1h4a1 1 0 0 1 1 1v6a1 1 0 0 1 -1 1h-4a1 1 0 0 1 -1 -1l0 -6" />
  <path d="M15 9a1 1 0 0 1 1 -1h4a1 1 0 0 1 1 1v10a1 1 0 0 1 -1 1h-4a1 1 0 0 1 -1 -1l0 -10" />
  <path d="M9 5a1 1 0 0 1 1 -1h4a1 1 0 0 1 1 1v14a1 1 0 0 1 -1 1h-4a1 1 0 0 1 -1 -1l0 -14" />
  <path d="M4 20h14" />
</symbol>
<symbol id="icon-check" viewBox="0 0 24 24" fill="none" stroke="currentColor" stroke-width="2" stroke-linecap="round" stroke-linejoin="round">
  <path stroke="none" d="M0 0h24v24H0z" fill="none" />
  <path d="M5 12l5 5l10 -10" />
</symbol>
<symbol id="icon-chevron-down" viewBox="0 0 24 24" fill="none" stroke="currentColor" stroke-width="2" stroke-linecap="round" stroke-linejoin="round">
  <path stroke="none" d="M0 0h24v24H0z" fill="none" />
  <path d="M6 9l6 6l6 -6" />
</symbol>
<symbol id="icon-device-laptop" viewBox="0 0 24 24" fill="none" stroke="currentColor" stroke-width="2" stroke-linecap="round" stroke-linejoin="round">
  <path stroke="none" d="M0 0h24v24H0z" fill="none" />
  <path d="M3 19l18 0" />
  <path d="M5 7a1 1 0 0 1 1 -1h12a1 1 0 0 1 1 1v8a1 1 0 0 1 -1 1h-12a1 1 0 0 1 -1 -1l0 -8" />
</symbol>
<symbol id="icon-external-link" viewBox="0 0 24 24" fill="none" stroke="currentColor" stroke-width="2" stroke-linecap="round" stroke-linejoin="round">
  <path stroke="none" d="M0 0h24v24H0z" fill="none" />
  <path d="M12 6h-6a2 2 0 0 0 -2 2v10a2 2 0 0 0 2 2h10a2 2 0 0 0 2 -2v-6" />
  <path d="M11 13l9 -9" />
  <path d="M15 4h5v5" />
</symbol>
<symbol id="icon-file-text" viewBox="0 0 24 24" fill="none" stroke="currentColor" stroke-width="2" stroke-linecap="round" stroke-linejoin="round">
  <path stroke="none" d="M0 0h24v24H0z" fill="none" />
  <path d="M14 3v4a1 1 0 0 0 1 1h4" />
  <path d="M17 21h-10a2 2 0 0 1 -2 -2v-14a2 2 0 0 1 2 -2h7l5 5v11a2 2 0 0 1 -2 2" />
  <path d="M9 9l1 0" />
  <path d="M9 13l6 0" />
  <path d="M9 17l6 0" />
</symbol>
<symbol id="icon-mail" viewBox="0 0 24 24" fill="none" stroke="currentColor" stroke-width="2" stroke-linecap="round" stroke-linejoin="round">
  <path stroke="none" d="M0 0h24v24H0z" fill="none" />
  <path d="M3 7a2 2 0 0 1 2 -2h14a2 2 0 0 1 2 2v10a2 2 0 0 1 -2 2h-14a2 2 0 0 1 -2 -2v-10" />
  <path d="M3 7l9 6l9 -6" />
</symbol>
<symbol id="icon-map-pin" viewBox="0 0 24 24" fill="none" stroke="currentColor" stroke-width="2" stroke-linecap="round" stroke-linejoin="round">
  <path stroke="none" d="M0 0h24v24H0z" fill="none" />
  <path d="M9 11a3 3 0 1 0 6 0a3 3 0 0 0 -6 0" />
  <path d="M17.657 16.657l-4.243 4.243a2 2 0 0 1 -2.827 0l-4.244 -4.243a8 8 0 1 1 11.314 0" />
</symbol>
<symbol id="icon-menu-2" viewBox="0 0 24 24" fill="none" stroke="currentColor" stroke-width="2" stroke-linecap="round" stroke-linejoin="round">
  <path stroke="none" d="M0 0h24v24H0z" fill="none" />
  <path d="M4 6l16 0" />
  <path d="M4 12l16 0" />
  <path d="M4 18l16 0" />
</symbol>
<symbol id="icon-phone" viewBox="0 0 24 24" fill="none" stroke="currentColor" stroke-width="2" stroke-linecap="round" stroke-linejoin="round">
  <path stroke="none" d="M0 0h24v24H0z" fill="none" />
  <path d="M5 4h4l2 5l-2.5 1.5a11 11 0 0 0 5 5l1.5 -2.5l5 2v4a2 2 0 0 1 -2 2a16 16 0 0 1 -15 -15a2 2 0 0 1 2 -2" />
</symbol>
<symbol id="icon-rocket" viewBox="0 0 24 24" fill="none" stroke="currentColor" stroke-width="2" stroke-linecap="round" stroke-linejoin="round">
  <path stroke="none" d="M0 0h24v24H0z" fill="none" />
  <path d="M4 13a8 8 0 0 1 7 7a6 6 0 0 0 3 -5a9 9 0 0 0 6 -8a3 3 0 0 0 -3 -3a9 9 0 0 0 -8 6a6 6 0 0 0 -5 3" />
  <path d="M7 14a6 6 0 0 0 -3 6a6 6 0 0 0 6 -3" />
  <path d="M14 9a1 1 0 1 0 2 0a1 1 0 1 0 -2 0" />
</symbol>
<symbol id="icon-search" viewBox="0 0 24 24" fill="none" stroke="currentColor" stroke-width="2" stroke-linecap="round" stroke-linejoin="round">
  <path stroke="none" d="M0 0h24v24H0z" fill="none" />
  <path d="M3 10a7 7 0 1 0 14 0a7 7 0 1 0 -14 0" />
  <path d="M21 21l-6 -6" />
</symbol>
<symbol id="icon-send" viewBox="0 0 24 24" fill="none" stroke="currentColor" stroke-width="2" stroke-linecap="round" stroke-linejoin="round">
  <path stroke="none" d="M0 0h24v24H0z" fill="none" />
  <path d="M10 14l11 -11" />
  <path d="M21 3l-6.5 18a.55 .55 0 0 1 -1 0l-3.5 -7l-7 -3.5a.55 .55 0 0 1 0 -1l18 -6.5" />
</symbol>
<symbol id="icon-shield-lock" viewBox="0 0 24 24" fill="none" stroke="currentColor" stroke-width="2" stroke-linecap="round" stroke-linejoin="round">
  <path stroke="none" d="M0 0h24v24H0z" fill="none" />
  <path d="M12 3a12 12 0 0 0 8.5 3a12 12 0 0 1 -8.5 15a12 12 0 0 1 -8.5 -15a12 12 0 0 0 8.5 -3" />
  <path d="M11 11a1 1 0 1 0 2 0a1 1 0 1 0 -2 0" />
  <path d="M12 12l0 2.5" />
</symbol>
<symbol id="icon-users" viewBox="0 0 24 24" fill="none" stroke="currentColor" stroke-width="2" stroke-linecap="round" stroke-linejoin="round">
  <path stroke="none" d="M0 0h24v24H0z" fill="none" />
  <path d="M5 7a4 4 0 1 0 8 0a4 4 0 1 0 -8 0" />
  <path d="M3 21v-2a4 4 0 0 1 4 -4h4a4 4 0 0 1 4 4v2" />
  <path d="M16 3.13a4 4 0 0 1 0 7.75" />
  <path d="M21 21v-2a4 4 0 0 0 -3 -3.85" />
</symbol>
<symbol id="icon-x" viewBox="0 0 24 24" fill="none" stroke="currentColor" stroke-width="2" stroke-linecap="round" stroke-linejoin="round">
  <path stroke="none" d="M0 0h24v24H0z" fill="none" />
  <path d="M18 6l-12 12" />
  <path d="M6 6l12 12" />
</symbol>
</svg>
